# xmcd CD database file
#
# Track frame offsets:
#	150
#	29664
#	53743
#	67406
#	79519
#	100180
#	126663
#	145443
#	161619
#	186077
#	209488
#	227665
#	256916
#	277906
#	293195
#	314989
#
# Disc length: 4523 seconds
#
# Revision: 1
# Processed by: cddbd v1.5.2PL0 Copyright (c) Steve Scherf et al.
# Submitted via: CDex 1.51
#
DISCID=fe11a910
DTITLE=Various Artist - Best Jazz 100 - Piano Standards disc-1
DYEAR=2006
DGENRE=Jazz
TTITLE0=Sonny Clark - Softly as in A Morning Sunrise
TTITLE1=Bill Evans /My Funny Valentine
TTITLE2=Ray Bryant - Misty
TTITLE3=Phineas Newborn Jr. - Take The A Train
TTITLE4=Ron Carter feat,Kenny Barron - You'd be So Nice to Come Home to
TTITLE5=The Three Sounds - Satin Doll
TTITLE6=McCoy Tyner - Autumn Leaves
TTITLE7=Chick Corea - My One And Only Love
TTITLE8=Horace Parlan - On Green Dolphin Street
TTITLE9=Don Randi - Summertime
TTITLE10=Jason Moran - Body And Soul
TTITLE11=Chuchu Valdes - My Foolish Heart
TTITLE12=Benny Green - Worksong
TTITLE13=Eddie Higgins - Route 66
TTITLE14=Brian Dee - Unforgettable
TTITLE15=Earl Hones - On The Sunny Side Of Street
EXTD=YEAR: 2006
EXTT0=
EXTT1=
EXTT2=
EXTT3=
EXTT4=
EXTT5=
EXTT6=
EXTT7=
EXTT8=
EXTT9=
EXTT10=
EXTT11=
EXTT12=
EXTT13=
EXTT14=
EXTT15=
PLAYORDER=
